{"accessors":[{"name":"Node-Mesh_positions","componentType":5126,"count":2040,"min":[-0.3704589903354645,-0.5093855261802673,-0.40939879417419434],"max":[0.40811029076576233,0.18263550102710724,0.4465144872665405],"type":"VEC3","bufferView":0,"byteOffset":0},{"name":"Node-Mesh_normals","componentType":5126,"count":2040,"min":[-1,-1,-1],"max":[1,1,1],"type":"VEC3","bufferView":0,"byteOffset":24480},{"name":"Node-Mesh_0_indices","componentType":5123,"count":2448,"min":[0],"max":[1631],"type":"SCALAR","bufferView":1,"byteOffset":0},{"name":"Node-Mesh_1_indices","componentType":5123,"count":612,"min":[1632],"max":[2039],"type":"SCALAR","bufferView":1,"byteOffset":4896}],"asset":{"generator":"obj2gltf","version":"2.0"},"buffers":[{"name":"model","byteLength":55080,"uri":"data:application/octet-stream;base64,"}],"bufferViews":[{"name":"bufferView_0","buffer":0,"byteLength":48960,"byteOffset":0,"byteStride":12,"target":34962},{"name":"bufferView_1","buffer":0,"byteLength":6120,"byteOffset":48960,"target":34963}],"materials":[{"name":"mat22","pbrMetallicRoughness":{"baseColorFactor":[0.62,0.62,0.62,1],"metallicFactor":0,"roughnessFactor":1},"emissiveFactor":[0,0,0],"alphaMode":"OPAQUE","doubleSided":false},{"name":"mat20","pbrMetallicRoughness":{"baseColorFactor":[0.47,0.33,0.28,1],"metallicFactor":0,"roughnessFactor":1},"emissiveFactor":[0,0,0],"alphaMode":"OPAQUE","doubleSided":false}],"meshes":[{"name":"Node-Mesh","primitives":[{"attributes":{"POSITION":0,"NORMAL":1},"indices":2,"material":0,"mode":4},{"attributes":{"POSITION":0,"NORMAL":1},"indices":3,"material":1,"mode":4}]}],"nodes":[{"name":"Node","mesh":0}],"scene":0,"scenes":[{"nodes":[0]}]}
